<svg width="512" height="512" viewBox="0 0 512 512" fill="none" xmlns="http://www.w3.org/2000/svg">
  <rect width="512" height="512" rx="22" fill="#E60012"/>
  <circle cx="107" cy="106" r="39" fill="white"/>
  <circle cx="107" cy="106" r="19" fill="#E60012"/>
  <circle cx="256" cy="106" r="39" fill="white"/>
  <circle cx="256" cy="106" r="19" fill="#E60012"/>
  <circle cx="405" cy="106" r="39" fill="white"/>
  <circle cx="405" cy="106" r="19" fill="#E60012"/>
  <circle cx="107" cy="255" r="39" fill="white"/>
  <circle cx="107" cy="255" r="19" fill="#E60012"/>
  <circle cx="256" cy="255" r="39" fill="white"/>
  <circle cx="256" cy="255" r="19" fill="#E60012"/>
  <circle cx="405" cy="255" r="39" fill="white"/>
  <circle cx="405" cy="255" r="19" fill="#E60012"/>
  <path d="M126 440C91.76 440 67 415.59 67 377.5C67 341.3 89.94 315 123.75 315C140.07 315 151.74 321.22 161 332.5V270H193V436H161.75V423.25C152.42 434.51 140.36 440 126 440ZM132.5 409C151.08 409 163.5 394.39 163.5 377.5C163.5 360.62 151.08 346 132.5 346C113.93 346 100.5 360.62 100.5 377.5C100.5 394.39 113.93 409 132.5 409Z" fill="white"/>
  <path d="M255.4 440C218.49 440 190 412.66 190 377.5C190 342.34 218.49 315 255.4 315C272.76 315 288.11 321.4 299.2 333.12V319H331V436H299.2V421.87C288.11 433.6 272.76 440 255.4 440ZM260.75 409C279.82 409 292.5 394.39 292.5 377.5C292.5 360.62 279.82 346 260.75 346C241.68 346 228.5 360.62 228.5 377.5C228.5 394.39 241.68 409 260.75 409Z" fill="white"/>
  <path d="M339 319H372V436H339V319Z" fill="white"/>
  <path d="M382 319H415V436H382V319Z" fill="white"/>
  <path d="M434 440C397.22 440 369 412.66 369 377.5C369 342.34 397.22 315 434 315C470.79 315 499 342.34 499 377.5C499 412.66 470.79 440 434 440ZM434 409C452.97 409 466.5 394.39 466.5 377.5C466.5 360.62 452.97 346 434 346C415.04 346 401.5 360.62 401.5 377.5C401.5 394.39 415.04 409 434 409Z" fill="white"/>
</svg>
