<svg width="512" height="512" viewBox="0 0 512 512" fill="none" xmlns="http://www.w3.org/2000/svg">
  <defs>
    <linearGradient id="bg" x1="52" y1="34" x2="462" y2="478" gradientUnits="userSpaceOnUse">
      <stop offset="0" stop-color="#F04A45"/>
      <stop offset="0.5" stop-color="#D91F1F"/>
      <stop offset="1" stop-color="#B60D13"/>
    </linearGradient>
    <linearGradient id="bevel" x1="75" y1="58" x2="439" y2="448" gradientUnits="userSpaceOnUse">
      <stop offset="0" stop-color="#FFFFFF" stop-opacity="0.42"/>
      <stop offset="0.25" stop-color="#FFFFFF" stop-opacity="0.12"/>
      <stop offset="1" stop-color="#FFFFFF" stop-opacity="0"/>
    </linearGradient>
    <filter id="shadow" x="20" y="20" width="472" height="472" filterUnits="userSpaceOnUse" color-interpolation-filters="sRGB">
      <feDropShadow dx="0" dy="18" stdDeviation="18" flood-color="#65050A" flood-opacity="0.28"/>
    </filter>
    <filter id="innerShadow" x="44" y="28" width="424" height="456" filterUnits="userSpaceOnUse" color-interpolation-filters="sRGB">
      <feOffset dx="0" dy="5"/>
      <feGaussianBlur stdDeviation="6"/>
      <feComposite in2="SourceAlpha" operator="arithmetic" k2="-1" k3="1"/>
      <feColorMatrix type="matrix" values="0 0 0 0 0.47 0 0 0 0 0.02 0 0 0 0 0.06 0 0 0 0.26 0"/>
      <feBlend in="SourceGraphic" mode="normal"/>
    </filter>
    <filter id="ringShadow" x="34" y="34" width="444" height="250" filterUnits="userSpaceOnUse" color-interpolation-filters="sRGB">
      <feDropShadow dx="0" dy="8" stdDeviation="7" flood-color="#761115" flood-opacity="0.32"/>
    </filter>
    <filter id="textShadow" x="44" y="266" width="424" height="176" filterUnits="userSpaceOnUse" color-interpolation-filters="sRGB">
      <feDropShadow dx="0" dy="8" stdDeviation="8" flood-color="#7A0E14" flood-opacity="0.34"/>
    </filter>
  </defs>

  <g filter="url(#shadow)">
    <rect x="36" y="36" width="440" height="440" rx="62" fill="url(#bg)"/>
    <rect x="36" y="36" width="440" height="440" rx="62" fill="url(#bevel)"/>
    <g filter="url(#innerShadow)">
      <rect x="36" y="36" width="440" height="440" rx="62" fill="transparent"/>
    </g>
  </g>

  <g filter="url(#ringShadow)">
    <g>
      <circle cx="104" cy="112" r="36" fill="#E8E8E8"/>
      <circle cx="104" cy="108" r="33" fill="white"/>
      <circle cx="104" cy="108" r="17" fill="#D61E20"/>
    </g>
    <g>
      <circle cx="256" cy="112" r="36" fill="#E8E8E8"/>
      <circle cx="256" cy="108" r="33" fill="white"/>
      <circle cx="256" cy="108" r="17" fill="#D61E20"/>
    </g>
    <g>
      <circle cx="408" cy="112" r="36" fill="#E8E8E8"/>
      <circle cx="408" cy="108" r="33" fill="white"/>
      <circle cx="408" cy="108" r="17" fill="#D61E20"/>
    </g>
    <g>
      <circle cx="104" cy="224" r="36" fill="#E8E8E8"/>
      <circle cx="104" cy="220" r="33" fill="white"/>
      <circle cx="104" cy="220" r="17" fill="#D61E20"/>
    </g>
    <g>
      <circle cx="256" cy="224" r="36" fill="#E8E8E8"/>
      <circle cx="256" cy="220" r="33" fill="white"/>
      <circle cx="256" cy="220" r="17" fill="#D61E20"/>
    </g>
    <g>
      <circle cx="408" cy="224" r="36" fill="#E8E8E8"/>
      <circle cx="408" cy="220" r="33" fill="white"/>
      <circle cx="408" cy="220" r="17" fill="#D61E20"/>
    </g>
  </g>

  <g filter="url(#textShadow)">
    <path d="M111 398C79.7 398 58 375.43 58 342.5C58 310.75 77.92 288 108.74 288C122.89 288 135.28 292.69 144.73 303.31V260H175.5V394H147.01V382.09C137.34 392.45 125.31 398 111 398ZM118.64 370.24C136.71 370.24 149.99 357 149.99 342.5C149.99 327.99 136.71 314.76 118.64 314.76C100.58 314.76 87.3 327.99 87.3 342.5C87.3 357 100.58 370.24 118.64 370.24Z" fill="#ECECEC"/>
    <path d="M223 398C192.98 398 170 375.72 170 342.5C170 309.27 192.98 287 223 287C237.23 287 249.97 292.12 259.6 301.18V291H289V394H259.6V383.82C249.97 392.88 237.23 398 223 398ZM229.4 370.24C246.58 370.24 259.68 357 259.68 342.5C259.68 327.99 246.58 314.76 229.4 314.76C212.22 314.76 199.12 327.99 199.12 342.5C199.12 357 212.22 370.24 229.4 370.24Z" fill="#ECECEC"/>
    <path d="M304 291H333V394H304V291Z" fill="#ECECEC"/>
    <path d="M347 291H376V394H347V291Z" fill="#ECECEC"/>
    <path d="M408 398C376.58 398 352 375.72 352 342.5C352 309.27 376.58 287 408 287C439.43 287 464 309.27 464 342.5C464 375.72 439.43 398 408 398ZM408 370.24C423.99 370.24 435.7 357 435.7 342.5C435.7 327.99 423.99 314.76 408 314.76C392.02 314.76 380.3 327.99 380.3 342.5C380.3 357 392.02 370.24 408 370.24Z" fill="#ECECEC"/>
    <path d="M111 393C79.7 393 58 370.43 58 337.5C58 305.75 77.92 283 108.74 283C122.89 283 135.28 287.69 144.73 298.31V255H175.5V389H147.01V377.09C137.34 387.45 125.31 393 111 393ZM118.64 365.24C136.71 365.24 149.99 352 149.99 337.5C149.99 322.99 136.71 309.76 118.64 309.76C100.58 309.76 87.3 322.99 87.3 337.5C87.3 352 100.58 365.24 118.64 365.24Z" fill="white"/>
    <path d="M223 393C192.98 393 170 370.72 170 337.5C170 304.27 192.98 282 223 282C237.23 282 249.97 287.12 259.6 296.18V286H289V389H259.6V378.82C249.97 387.88 237.23 393 223 393ZM229.4 365.24C246.58 365.24 259.68 352 259.68 337.5C259.68 322.99 246.58 309.76 229.4 309.76C212.22 309.76 199.12 322.99 199.12 337.5C199.12 352 212.22 365.24 229.4 365.24Z" fill="white"/>
    <path d="M304 286H333V389H304V286Z" fill="white"/>
    <path d="M347 286H376V389H347V286Z" fill="white"/>
    <path d="M408 393C376.58 393 352 370.72 352 337.5C352 304.27 376.58 282 408 282C439.43 282 464 304.27 464 337.5C464 370.72 439.43 393 408 393ZM408 365.24C423.99 365.24 435.7 352 435.7 337.5C435.7 322.99 423.99 309.76 408 309.76C392.02 309.76 380.3 322.99 380.3 337.5C380.3 352 392.02 365.24 408 365.24Z" fill="white"/>
  </g>
</svg>
